HIERARCHY
ROOT Hips
{
 OFFSET 0.000000 0.000000 0.000000
 CHANNELS 6 Xposition Yposition Zposition Yrotation Xrotation Zrotation
 JOINT Chest
 {
  OFFSET 0.000000 9.585900 0.002600
  CHANNELS 3 Yrotation Xrotation Zrotation
  JOINT Chest2
  {
   OFFSET 0.000000 9.601200 -0.005300
   CHANNELS 3 Yrotation Xrotation Zrotation
   JOINT Chest3
   {
    OFFSET 0.000000 9.561800 0.000000
    CHANNELS 3 Yrotation Xrotation Zrotation
    JOINT Chest4
    {
     OFFSET 0.000000 9.552100 0.000000
     CHANNELS 3 Yrotation Xrotation Zrotation
     JOINT Neck
     {
      OFFSET 0.000000 14.453000 0.000000
      CHANNELS 3 Yrotation Xrotation Zrotation
      JOINT Head
      {
       OFFSET 0.000000 8.936500 -0.011300
       CHANNELS 3 Yrotation Xrotation Zrotation
       End Site
       {
        OFFSET 0.000000 17.073600 -0.006000
       }
      }
     }
     JOINT RightCollar
     {
      OFFSET -2.921100 9.558500 0.000000
      CHANNELS 3 Yrotation Xrotation Zrotation
      JOINT RightShoulder
      {
       OFFSET -13.519700 0.000000 0.000000
       CHANNELS 3 Yrotation Xrotation Zrotation
       JOINT RightElbow
       {
        OFFSET 0.000000 -29.696600 0.000000
        CHANNELS 3 Yrotation Xrotation Zrotation
        JOINT RightWrist
        {
         OFFSET 0.000000 -24.004700 0.000000
         CHANNELS 3 Yrotation Xrotation Zrotation
         End Site
         {
          OFFSET 0.000000 -17.728500 0.000000
         }
        }
       }
      }
     }
     JOINT LeftCollar
     {
      OFFSET 2.921100 9.558500 0.000000
      CHANNELS 3 Yrotation Xrotation Zrotation
      JOINT LeftShoulder
      {
       OFFSET 13.519700 0.000000 0.000000
       CHANNELS 3 Yrotation Xrotation Zrotation
       JOINT LeftElbow
       {
        OFFSET 0.000000 -29.696600 0.000000
        CHANNELS 3 Yrotation Xrotation Zrotation
        JOINT LeftWrist
        {
         OFFSET 0.000000 -24.004700 0.000000
         CHANNELS 3 Yrotation Xrotation Zrotation
         End Site
         {
          OFFSET 0.000000 -17.728500 0.000000
         }
        }
       }
      }
     }
    }
   }
  }
 }
 JOINT RightHip
 {
  OFFSET -7.771700 -0.012900 -0.001300
  CHANNELS 3 Yrotation Xrotation Zrotation
  JOINT RightKnee
  {
   OFFSET 0.000000 -40.869800 0.001200
   CHANNELS 3 Yrotation Xrotation Zrotation
   JOINT RightAnkle
   {
    OFFSET 0.000000 -39.717900 0.002100
    CHANNELS 3 Yrotation Xrotation Zrotation
    JOINT RightToe
    {
     OFFSET 0.000000 -4.965400 11.033500
     CHANNELS 3 Yrotation Xrotation Zrotation
     End Site
     {
      OFFSET 0.000000 -1.423100 5.872300
     }
    }
   }
  }
 }
 JOINT LeftHip
 {
  OFFSET 7.771700 -0.012900 -0.001300
  CHANNELS 3 Yrotation Xrotation Zrotation
  JOINT LeftKnee
  {
   OFFSET 0.000000 -40.869800 0.001200
   CHANNELS 3 Yrotation Xrotation Zrotation
   JOINT LeftAnkle
   {
    OFFSET 0.000000 -39.717900 0.002100
    CHANNELS 3 Yrotation Xrotation Zrotation
    JOINT LeftToe
    {
     OFFSET 0.000000 -4.965400 11.033500
     CHANNELS 3 Yrotation Xrotation Zrotation
     End Site
     {
      OFFSET 0.000000 -1.423100 5.872300
     }
    }
   }
  }
 }
}
MOTION
Frames: 6
Frame Time: 0.008333
0.000000 85.388000 0.000000 0.000000 -5.767877 0.000000 0.000000 11.653817 0.000000 0.000000 -5.885947 0.000000 0.000000 -0.000000 0.000000 0.000000 -0.000000 0.000000 0.000000 12.528835 0.000000 0.000000 0.711642 0.000000 0.000000 -0.000000 0.000000 0.000000 0.000000 -90.000000 0.000000 -2.309062 0.000000 0.000000 2.309062 0.000000 0.000000 -0.000000 0.000000 0.000000 -0.000000 90.000000 0.000000 -2.309062 0.000000 0.000000 2.309062 0.000000 0.000000 8.520406 0.000000 0.000000 1.905762 0.000000 -0.000000 -4.658285 0.000000 0.000000 -0.000000 0.000000 0.000000 8.520406 0.000000 0.000000 1.905762 0.000000 -0.000000 -4.658285 0.000000 0.000000 -0.000000 0.000000
7.004201 50.022405 43.919610 173.056784 -27.933474 -7.899859 3.811413 14.979442 5.848721 0.312258 1.511556 0.402660 0.482484 2.511699 0.674920 3.001112 13.466431 3.953735 -1.335356 15.569507 1.467888 -3.023483 -6.826159 3.222349 -0.738850 -3.317901 -4.804001 11.305036 -16.406641 -9.910480 140.960154 -68.314178 -147.199539 -4.498088 -13.437897 -0.838775 -12.414448 -2.918514 -2.499638 3.623825 -19.823652 11.149677 -144.620534 -56.137813 147.060105 37.858564 -30.827607 -1.330072 -3.812955 -52.144627 13.181857 -107.163704 84.111759 -95.397715 -1.267386 -12.275936 -4.702994 -0.246426 1.174648 -0.043262 -12.214476 -56.162319 19.145426 -156.645285 80.118866 -163.400739 0.910887 -15.769362 7.449769 -0.533773 -0.596608 -0.288388
7.009769 50.010646 43.889518 173.104541 -27.905844 -7.920684 3.793885 14.967910 5.854763 0.341798 1.508515 0.408134 0.484220 2.493717 0.677032 3.020583 13.414134 3.978509 -1.327484 15.537678 1.462441 -3.008007 -6.885793 3.210527 -0.805877 -3.365482 -4.769596 11.025378 -16.163967 -10.003758 141.993979 -66.685863 -148.093956 -4.566267 -14.382675 -2.235826 -12.414451 -2.964450 -2.572500 3.810022 -19.976324 11.135298 -145.903430 -55.019900 148.052652 38.003506 -31.266133 -0.473599 -3.837086 -52.167038 13.168680 -107.698060 84.134366 -95.913750 -1.284573 -12.332765 -4.712296 -0.239956 1.204813 -0.064068 -12.284775 -56.197811 19.146948 -156.745778 80.063785 -163.489790 0.935230 -15.798606 7.441436 -0.529522 -0.565986 -0.274457
7.016246 49.996708 43.859511 173.141500 -27.867379 -7.935301 3.816993 14.950065 5.872131 0.337544 1.495022 0.410647 0.487430 2.480903 0.679589 3.002952 13.392164 3.986682 -1.279092 15.515448 1.468722 -3.000631 -6.900292 3.209009 -0.814800 -3.438137 -4.735144 10.763362 -15.920869 -10.114045 142.603938 -65.036397 -148.617944 -4.551920 -15.406113 -3.727906 -12.386795 -3.004590 -2.639168 3.901342 -20.156535 11.218136 -146.848249 -53.942298 148.772069 38.090454 -31.930021 0.593019 -3.852770 -52.202134 13.157250 -108.203220 84.155990 -96.401018 -1.305069 -12.391592 -4.718369 -0.243422 1.226117 -0.075397 -12.344013 -56.249470 19.138875 -156.858041 80.006410 -163.579558 0.966892 -15.824243 7.430270 -0.524492 -0.573454 -0.285408
7.025889 49.982479 43.830873 173.173407 -27.831577 -7.959488 3.840247 14.927373 5.901010 0.336841 1.488957 0.412892 0.491726 2.473000 0.682270 3.052760 13.354231 4.016381 -1.344472 15.532360 1.460979 -2.999209 -6.895840 3.210686 -0.870510 -3.484426 -4.719274 10.515266 -15.682322 -10.218184 142.876510 -63.382818 -148.861317 -4.407690 -16.484922 -5.359329 -12.443543 -3.007460 -2.701921 3.909211 -20.360975 11.369865 -147.485376 -52.923098 149.240112 38.097308 -32.820807 1.864975 -3.856011 -52.233274 13.147655 -108.630503 84.175693 -96.798085 -1.302054 -12.449589 -4.735059 -0.262824 1.252883 -0.080218 -12.414907 -56.298603 19.153006 -156.918974 79.944884 -163.620105 1.021745 -15.849620 7.416683 -0.531281 -0.583324 -0.295733
7.040088 49.968916 43.805834 173.189871 -27.804044 -7.997503 3.879499 14.907842 5.952070 0.339084 1.486048 0.412996 0.497327 2.469086 0.685100 3.107007 13.330733 4.044151 -1.355752 15.569891 1.467106 -3.057159 -6.910462 3.221665 -0.914773 -3.527096 -4.713247 10.279476 -15.437991 -10.302754 142.835155 -61.718796 -148.850006 -4.115651 -17.601400 -7.183595 -12.536235 -3.007036 -2.728557 3.852284 -20.572415 11.554454 -147.863544 -51.969645 149.499828 37.972088 -33.889923 3.324195 -3.860366 -52.249833 13.173628 -108.830294 84.180230 -96.964641 -1.296836 -12.516677 -4.748712 -0.272964 1.298784 -0.085371 -12.506359 -56.336547 19.211837 -156.927872 79.880681 -163.613494 1.091550 -15.875081 7.403184 -0.559161 -0.570285 -0.287491
